<?xml version="1.0"?>
<svg version="1.1" xmlns="http://www.w3.org/2000/svg" width="300" height="50" style=""><path fill="#000000" d="M19.75,42.48l0-20.52l-3.23-0.76l0-2.09l7.03-0.19l4.37,0c4.75,0,8.17,2.09,8.17,6.65c0,3.42-1.748,5.358-4.94,6.156c3.99,0.912,5.89,3.154,5.89,6.194c0,5.32-3.42,7.6-9.69,7.6l-10.83,0l0-2.28z M23.55,30.32l2.85,0c3.42,0,5.7-1.33,5.7-4.37c0-2.66-1.9-3.99-4.37-3.99l-4.18,0l0,8.36z M23.55,42.48l3.99,0c3.61,0,5.51-1.52,5.51-4.37c0-3.8-2.47-4.94-6.65-4.94l-2.85,0l0,9.31z M65.2968,43.24l0,2.09l-6.27,0.19l-0.38-2.66c-0.912,0.798-3.914,3.04-7.03,3.04c-4.18,0-6.08-2.622-6.08-6.802l0-10.678l-3.23-0.76l0-2.09l7.03-0.19l0,13.338c0,2.66,0.95,3.952,3.42,3.952c3.23,0,5.51-3.002,5.51-3.002l0-11.248l-3.23-0.76l0-2.09l7.03-0.19l0,17.1z M91.2736,43.24l0,2.09l-6.46,0.19l-0.304-2.166c-1.102,1.102-3.078,2.546-5.966,2.546c-5.51,0-7.98-3.99-7.98-9.88c0-6.46,3.23-11.02,10.07-11.02c1.406,0,2.622,0.266,3.61,0.608l0-6.308l-3.23-0.76l0-2.09l7.03-0.19l0,26.22z M84.2436,40.01l0-11.21s-1.33-0.76-3.99-0.76c-4.408,0-5.7,3.42-5.7,7.6s1.33,7.22,4.75,7.22c3.23,0,4.94-2.85,4.94-2.85z M102.3544,18.92c0-1.444,0.95-2.28,2.09-2.28c1.292,0,2.09,0.836,2.09,2.28s-0.95,2.28-2.09,2.28c-1.292,0-2.09-0.836-2.09-2.28z M100.7964,42.67l7.752,0l0.532-3.04l2.66,0l0,5.89l-15.2,0l0-2.85l11.096-14.44l-7.144,0l-0.532,2.85l-2.66,0l0-5.7l14.63,0l0,2.85z M134.4872,36.02l-13.11,0c0,4.18,2.242,6.84,5.51,6.84c3.8,0,6.384-2.09,6.384-2.09l1.33,1.976s-3.534,3.154-8.094,3.154c-6.08,0-9.12-3.99-9.12-10.26c0-6.08,3.8-10.64,9.31-10.64s7.98,3.23,7.98,8.93c0,0.95-0.19,2.014-0.19,2.09z M121.5292,33.17l9.12,0c0-2.85-1.102-5.206-4.142-5.206s-4.75,2.356-4.978,5.206z M152.864,25.57l0,2.85l-5.51,0l0,12.198c0,1.748,0.836,2.318,1.9,2.318c0.912,0,1.976-0.418,2.964-0.95l1.026,2.014c-1.71,1.254-3.42,1.9-5.32,1.9c-2.28,0-4.37-1.254-4.37-5.51l0-11.97l-3.8,0l0-2.47l3.8-0.38l0-4.788l3.8-0.76l0,5.548l5.51,0z"/><path fill="#d22730" d="M167.7708,23.128c3.2,0,5.04,2.112,5.04,5.68c0,3.6-2.16,6-5.36,6s-4.96-2-4.96-5.76c0-3.68,2.032-5.92,5.28-5.92z M167.6908,25.128c-1.6,0-2.48,0.992-2.48,3.84c0,2.64,0.72,3.84,2.32,3.84s2.56-1.04,2.56-3.92c0-2.64-0.8-3.76-2.4-3.76z M178.48296,22.2l0,4.448c0.272-0.208,1.072-0.848,2.288-0.848c2.144,0,3.28,1.552,3.28,4.24c0,3.008-1.568,4.752-4.64,4.752c-1.76,0-3.328-0.352-3.328-0.352l0-10.512l-1.2-0.32l0-1.28z M178.48296,28.44l0,4.304s0.368,0.128,1.184,0.128c1.392,0,1.904-1.056,1.904-2.672c0-1.6-0.448-2.48-1.568-2.48c-0.96,0-1.52,0.72-1.52,0.72z M185.88312,27.32l0-1.28l4.272-0.08l0,1.36l-0.896,0.16l1.424,4.48l1.36-4.432l-0.928-0.208l0-1.28l4.304-0.08l0,1.36l-0.992,0.208l-2.352,6.56c-0.768,2.112-1.808,4.352-4.352,4.352c-0.544,0-1.552-0.128-1.552-0.128l0.224-1.712l1.04,0c1.28,0,1.872-1.36,2.144-1.984l-2.848-7.04z M207.34728,27.56l-0.976-0.24l0-1.28l4.096-0.08l0,1.36l-0.848,0.192l-2.128,7.088l-2.448,0l-1.264-4.08l-0.288-1.248l-0.4,1.744l-1.168,3.584l-2.432,0l-2.176-7.056l-0.704-0.224l0-1.28l4.192-0.08l0,1.36l-1.008,0.192l1.056,4.496l1.696-5.776l2.112-0.352l1.744,6.128z M217.67544,34.6l-0.288-1.04s-1.232,1.2-2.592,1.2c-1.552,0-2.496-0.912-2.496-2.512c0-1.888,1.424-2.64,3.856-2.64l1.12,0l0-0.88c0-0.816-0.432-1.168-1.232-1.168c-0.816,0-1.408,0.24-1.408,0.24l-0.24,1.008l-1.44,0l-0.112-2.368s1.936-0.64,3.472-0.64c2.432,0,3.36,0.848,3.36,3.168l0,3.952l1.2,0.288l0,1.28z M217.27544,30.968l-0.912,0c-1.248,0-1.744,0.32-1.744,1.04c0,0.608,0.336,0.96,0.944,0.96c0.848,0,1.712-0.928,1.712-0.928l0-1.072z M228.6276,32.552l0.576,1.216c-0.784,0.576-1.68,0.992-2.72,0.992c-1.84,0-2.368-1.28-2.368-3.12l0-3.68l-1.488,0l0-1.552l1.488-0.208l0-2.208l2.4-0.432l0,2.64l2.24,0l0,1.76l-2.24,0l0,3.52c0,1.024,0.176,1.44,0.848,1.44c0.432,0,1.056-0.256,1.264-0.368z M238.84376,30.808l-5.312,0c0.096,1.28,0.832,2.032,1.936,2.032c1.328,0,2.688-0.752,2.688-0.752l0.688,1.328s-1.6,1.344-3.648,1.344c-2.752,0-4.16-1.6-4.16-4.32c0-2.8,1.584-4.64,4.272-4.64c2.384,0,3.632,1.472,3.632,3.76c0,0.608-0.096,1.2-0.096,1.248z M233.56376,29.32l2.896,0c0-0.912-0.384-1.6-1.312-1.6c-0.896,0-1.456,0.656-1.584,1.6z M244.62792,32.92l1.44,0.4l0,1.28l-5.136,0l0-1.28l1.28-0.4l0-8.992l-1.28-0.32l0-1.28l3.696-0.128l0,10.72z M249.30808,31.8l0.128,1.04s0.56,0.16,1.344,0.16c0.88,0,1.312-0.272,1.312-0.784c0-1.312-4.272-0.832-4.272-3.68c0-2,1.6-2.736,3.296-2.736c1.44,0,2.976,0.48,2.976,0.48l-0.064,2.4l-1.36,0l-0.24-0.96s-0.464-0.16-1.104-0.16c-0.688,0-1.104,0.288-1.104,0.816c0,1.296,4.272,0.736,4.272,3.504c0,1.84-1.488,2.88-3.68,2.88c-1.52,0-2.944-0.352-2.944-0.352l0-2.608l1.44,0z M260.16424,29.176l1.056,0l1.088-1.632l-0.704-0.224l0-1.28l4.128-0.08l0,1.36l-1.12,0.208l-1.488,2.096l1.792,3.312l1.216,0.384l0,1.28l-2.96,0l-1.984-3.904l-1.024,0l0,2.224l0.88,0.4l0,1.28l-4.56,0l0-1.28l1.28-0.4l0-8.992l-1.28-0.32l0-1.28l3.68-0.128l0,6.976z M268.9564,23.32c0-0.912,0.656-1.44,1.376-1.44c0.832,0,1.344,0.432,1.344,1.44c0,0.944-0.688,1.456-1.344,1.456c-0.864,0-1.376-0.512-1.376-1.456z M271.6444,32.92l1.12,0.4l0,1.28l-4.8,0l0-1.28l1.28-0.4l0-5.2l-1.28-0.4l0-1.28l3.68-0.08l0,6.96z"/></svg>
